# xmcd
#
# Track frame offsets: 
#        150
#        13722
#        25632
#        40414
#        53101
#        66141
#        79604
#        91613
#        104779
#        117904
#        129892
#        142920
#        155158
#        167555
#        181216
#        194579
#        206924
#        221663
#        235714
#        248607
#        262554
#        275616
#        288377
#        302302
#        314976
#
# Disc length: 4375 seconds
#
# Revision: 3
# Processed by: cddbd v1.5.2PL0 Copyright (c) Steve Scherf et al.
# Submitted via: ExactAudioCopy v0.95b4
#
DISCID=5c111519
DTITLE=T-Bone Walker - T-Bone Blues
DYEAR=1900
DGENRE=Blues
TTITLE0=Misfortune Blues
TTITLE1=That압 Better For Me
TTITLE2=I Got A Break Baby
TTITLE3=Hyping Woman Blues
TTITLE4=That Old Feeling Is Gone
TTITLE5=T-Bone Shuffle
TTITLE6=Bobby Sox Baby
TTITLE7=Youre My Best Poker Hand
TTITLE8=It압 A Lowdown Dirty Deal
TTITLE9=Lonesome Woman Blues
TTITLE10=I Wish You Were Mine
TTITLE11=T-Bone Jumps Again
TTITLE12=I앐 In An Awful Mood
TTITLE13=Call It Stormy Monday But Tuesday Just As Bad
TTITLE14=I앐 Gonna Move You Out
TTITLE15=Midnight Blues
TTITLE16=T-Bone Blues
TTITLE17=Description Blues
TTITLE18=Long Skirt Baby Blues
TTITLE19=The Plain Old Down Home Blues
TTITLE20=Mean Old World
TTITLE21=Prison Blues
TTITLE22=She압 The Non-sleepin안st Woman
TTITLE23=Don앖 Leave Me Baby
TTITLE24=I앐 Still In Love With You
EXTD=
EXTT0=
EXTT1=
EXTT2=
EXTT3=
EXTT4=
EXTT5=
EXTT6=
EXTT7=
EXTT8=
EXTT9=
EXTT10=
EXTT11=
EXTT12=
EXTT13=
EXTT14=
EXTT15=
EXTT16=
EXTT17=
EXTT18=
EXTT19=
EXTT20=
EXTT21=
EXTT22=
EXTT23=
EXTT24=
PLAYORDER=
